<svg id="Layer_1" data-name="Layer 1" xmlns="http://www.w3.org/2000/svg" xmlns:xlink="http://www.w3.org/1999/xlink" viewBox="0 0 587.13 54.75"><defs><style>.cls-1,.cls-2{fill:none;}.cls-1{clip-rule:evenodd;}.cls-3{clip-path:url(#clip-path);}.cls-4{fill:#fff;}.cls-5{clip-path:url(#clip-path-2);}.cls-6{clip-path:url(#clip-path-3);}</style><clipPath id="clip-path" transform="translate(8.55 8.23)"><path class="cls-1" d="M568.58,4.06V36H567.5a1,1,0,0,1-.49-.1,1.14,1.14,0,0,1-.37-.35L545.9,7.83q.07.68.07,1.29V36h-2V4.06h1.15a1.18,1.18,0,0,1,.49.08,1.11,1.11,0,0,1,.37.35l20.7,27.65q-.07-.68-.07-1.29V4.06ZM534.9,36h-2.32V4.06h2.32Zm-7.23,0h-1.78a.78.78,0,0,1-.52-.17,1.12,1.12,0,0,1-.32-.44l-3.75-9.28H505.62l-3.75,9.28a1,1,0,0,1-.32.43A.84.84,0,0,1,501,36h-1.76L512.32,4.06h2.28Zm-7.07-11.6-6.5-16.14a16.1,16.1,0,0,1-.65-1.9q-.14.54-.29,1a9.26,9.26,0,0,1-.34.89l-6.5,16.12ZM494.35,4.06V36H492V20.7H472V36H469.7V4.06H472V19h20V4.06ZM462.63,30.63a.52.52,0,0,1,.38.16l.9,1a15.22,15.22,0,0,1-2.16,1.91,13.17,13.17,0,0,1-2.55,1.44,15,15,0,0,1-3,.93,18.87,18.87,0,0,1-3.65.33,15.54,15.54,0,0,1-6.08-1.16,13.62,13.62,0,0,1-4.75-3.3,14.91,14.91,0,0,1-3.08-5.16A19.65,19.65,0,0,1,437.51,20a18.73,18.73,0,0,1,1.13-6.64,15.24,15.24,0,0,1,3.16-5.16,14,14,0,0,1,4.88-3.34,16.16,16.16,0,0,1,6.27-1.19,15.47,15.47,0,0,1,5.8,1,15.64,15.64,0,0,1,4.6,2.87l-.7,1a.63.63,0,0,1-.56.27,1.82,1.82,0,0,1-.88-.5,11.68,11.68,0,0,0-1.69-1.09,14.38,14.38,0,0,0-2.7-1.09,13.26,13.26,0,0,0-3.87-.5,13.73,13.73,0,0,0-5.29,1,11.67,11.67,0,0,0-4.13,2.84,13.1,13.1,0,0,0-2.7,4.51,17.38,17.38,0,0,0-1,6,17.41,17.41,0,0,0,1,6,13.21,13.21,0,0,0,2.7,4.5,11.65,11.65,0,0,0,4.05,2.82,12.89,12.89,0,0,0,5,1,18.59,18.59,0,0,0,3.06-.23,12,12,0,0,0,2.47-.68,11.14,11.14,0,0,0,2.1-1.11,15.87,15.87,0,0,0,1.92-1.53,1.28,1.28,0,0,1,.23-.15A.5.5,0,0,1,462.63,30.63Zm-49.81-7.79V36h-2.3V22.84L398.69,4.06h2a.87.87,0,0,1,.52.15,1.12,1.12,0,0,1,.34.42l9.14,14.67q.29.52.54,1a9.64,9.64,0,0,1,.43,1q.18-.47.41-1t.52-1l9.14-14.67a1,1,0,0,1,.33-.41.87.87,0,0,1,.53-.16h2ZM402.21,34v2H384.76V4.06h2.32V34Zm-34.88-30q5.62,0,8.48,2.46a8.76,8.76,0,0,1,2.86,7,9.32,9.32,0,0,1-.79,3.86,8.7,8.7,0,0,1-2.26,3,10.5,10.5,0,0,1-3.57,2,14.65,14.65,0,0,1-4.72.71h-5.94V36h-2.32V4.06Zm0,17.22a11.33,11.33,0,0,0,3.77-.59,8.35,8.35,0,0,0,2.83-1.63,7.06,7.06,0,0,0,1.78-2.45,7.56,7.56,0,0,0,.62-3.08,7.15,7.15,0,0,0-2.26-5.67q-2.26-2-6.75-2h-5.94V21.28ZM341.63,4.06q5.62,0,8.48,2.46a8.76,8.76,0,0,1,2.86,7,9.32,9.32,0,0,1-.79,3.86,8.69,8.69,0,0,1-2.26,3,10.5,10.5,0,0,1-3.57,2,14.65,14.65,0,0,1-4.72.71H335.7V36h-2.32V4.06Zm0,17.22a11.33,11.33,0,0,0,3.77-.59,8.35,8.35,0,0,0,2.83-1.63A7.06,7.06,0,0,0,350,16.62a7.57,7.57,0,0,0,.62-3.08,7.15,7.15,0,0,0-2.26-5.67q-2.26-2-6.75-2H335.7V21.28Zm-29,13.07a10.11,10.11,0,0,0,4.12-.8,8.83,8.83,0,0,0,3.08-2.22A9.78,9.78,0,0,0,321.78,28a12.69,12.69,0,0,0,.67-4.16V4.06h2.3V23.81a14.29,14.29,0,0,1-.84,4.93,11.79,11.79,0,0,1-2.4,4,11.09,11.09,0,0,1-3.81,2.67,13.6,13.6,0,0,1-10.09,0,11.09,11.09,0,0,1-3.81-2.67,11.79,11.79,0,0,1-2.4-4,14.29,14.29,0,0,1-.84-4.93V4.06h2.32V23.79a12.68,12.68,0,0,0,.67,4.16,9.88,9.88,0,0,0,1.92,3.35,8.84,8.84,0,0,0,3.07,2.23A10,10,0,0,0,312.65,34.35ZM292.71,7.94a.64.64,0,0,1-.59.38,1.3,1.3,0,0,1-.76-.42A9.7,9.7,0,0,0,288.14,6a9.91,9.91,0,0,0-6,.07,6.38,6.38,0,0,0-2.21,1.35,5.76,5.76,0,0,0-1.35,2,6.19,6.19,0,0,0-.46,2.37,4.84,4.84,0,0,0,.69,2.69,6.21,6.21,0,0,0,1.82,1.81,11.76,11.76,0,0,0,2.56,1.25q1.43.51,2.95,1t2.95,1.09a10.62,10.62,0,0,1,2.56,1.5,6.89,6.89,0,0,1,1.82,2.22,7.05,7.05,0,0,1,.69,3.28,10.35,10.35,0,0,1-.69,3.78,8.82,8.82,0,0,1-2,3.08,9.38,9.38,0,0,1-3.21,2.07,11.63,11.63,0,0,1-4.33.76,12.25,12.25,0,0,1-5.44-1.12,12.82,12.82,0,0,1-4-3.06l.63-1a.79.79,0,0,1,.63-.34.9.9,0,0,1,.52.27l.77.67q.45.4,1.08.86a9,9,0,0,0,1.47.86,10.38,10.38,0,0,0,1.92.67,10.17,10.17,0,0,0,2.46.27,9.34,9.34,0,0,0,3.39-.58,7.41,7.41,0,0,0,2.52-1.57,6.65,6.65,0,0,0,1.57-2.36A7.86,7.86,0,0,0,292,27a5.15,5.15,0,0,0-.69-2.79,5.93,5.93,0,0,0-1.82-1.83,11.72,11.72,0,0,0-2.56-1.23q-1.43-.5-2.95-1T281,19.14a10.15,10.15,0,0,1-2.56-1.5,6.87,6.87,0,0,1-1.82-2.28,7.56,7.56,0,0,1-.69-3.42,8.09,8.09,0,0,1,.61-3.09,7.69,7.69,0,0,1,1.78-2.63,8.76,8.76,0,0,1,2.9-1.83,10.57,10.57,0,0,1,3.94-.69,11.92,11.92,0,0,1,4.46.79,10.68,10.68,0,0,1,3.6,2.42ZM250.12,23.36V36h-6V23.36l-11.9-20h5.35a1.9,1.9,0,0,1,1.25.38,3.23,3.23,0,0,1,.78,1l6,10.9q.52,1,.91,1.83t.71,1.72q.29-.86.68-1.72t.88-1.83l5.94-10.9a3,3,0,0,1,.74-.93,1.86,1.86,0,0,1,1.26-.43H262ZM236.51,36h-4.7a2,2,0,0,1-1.29-.4,2.46,2.46,0,0,1-.74-1L227.34,28H213.82l-2.44,6.66a2.16,2.16,0,0,1-.7.95,2,2,0,0,1-1.29.43h-4.74L217.5,3.36h6.18ZM225.79,23.68l-4-10.86q-.29-.72-.61-1.72T220.57,9q-.29,1.15-.61,2.16t-.61,1.75l-4,10.81ZM207.07,3.36,196.93,36h-5.49l-7.13-22.3a15.21,15.21,0,0,1-.54-2q-.14.56-.27,1.06t-.29.93L176,36H170.5L160.39,3.36h5.08a2.24,2.24,0,0,1,1.32.37,1.79,1.79,0,0,1,.71,1l5.55,19.52q.18.72.35,1.57l.35,1.77q.18-.95.39-1.78t.46-1.56L181,4.74a2.14,2.14,0,0,1,.71-.95,2,2,0,0,1,1.3-.43h1.78a2,2,0,0,1,1.29.38,2.35,2.35,0,0,1,.74,1l6.39,19.52a28.18,28.18,0,0,1,.86,3.23q.29-1.78.65-3.23L200.3,4.74a1.69,1.69,0,0,1,.69-1,2.17,2.17,0,0,1,1.32-.41ZM144.18,8.19v9.05H155.6v4.67H144.18v9.23h14.49V36H138.08V3.36h20.59V8.19Zm-10,.16h-9.84V36h-6.07V8.35h-9.84v-5h25.75ZM111.59,36H106.9a2,2,0,0,1-1.29-.4,2.46,2.46,0,0,1-.74-1L102.43,28H88.91l-2.44,6.66a2.16,2.16,0,0,1-.7.95,2,2,0,0,1-1.29.43H79.74L92.59,3.36h6.18ZM100.87,23.68l-4-10.86q-.29-.72-.61-1.72T95.66,9q-.29,1.15-.61,2.16t-.61,1.75l-4,10.81Zm-22.33-4v13.2a17.3,17.3,0,0,1-5.29,2.67,20.76,20.76,0,0,1-6,.85A20.08,20.08,0,0,1,60,35.12a16.19,16.19,0,0,1-5.53-3.45,15.13,15.13,0,0,1-3.53-5.28,17.72,17.72,0,0,1-1.24-6.7,18.44,18.44,0,0,1,1.2-6.75,14.86,14.86,0,0,1,8.74-8.71,19.31,19.31,0,0,1,7-1.22,20.63,20.63,0,0,1,3.71.32,18.8,18.8,0,0,1,3.21.87,13.88,13.88,0,0,1,2.7,1.34,16.09,16.09,0,0,1,2.23,1.74L76.78,10a1.66,1.66,0,0,1-1.06.8,1.9,1.9,0,0,1-1.42-.33l-1.49-.86a9.61,9.61,0,0,0-1.66-.74,13.62,13.62,0,0,0-2.05-.52,15.12,15.12,0,0,0-2.63-.2A11.27,11.27,0,0,0,62.1,9a9.24,9.24,0,0,0-3.33,2.32,10.48,10.48,0,0,0-2.12,3.63,14.24,14.24,0,0,0-.74,4.74,14.55,14.55,0,0,0,.8,5A10.52,10.52,0,0,0,59,28.4a9.62,9.62,0,0,0,3.51,2.32,13.61,13.61,0,0,0,7.81.42,15.87,15.87,0,0,0,2.78-1V24.19H68.95a1.24,1.24,0,0,1-.91-.33,1.09,1.09,0,0,1-.33-.8V19.64Z"/></clipPath><clipPath id="clip-path-2" transform="translate(8.55 8.23)"><path class="cls-1" d="M28.12,29.09H8.89V9.39H28.12ZM1.45,1.77V36.52H35.56V1.77Z"/></clipPath><clipPath id="clip-path-3" transform="translate(8.55 8.23)"><rect class="cls-2" x="13.43" y="13.85" width="10.34" height="10.59"/></clipPath></defs><title>Gateway-white</title><g class="cls-3"><rect class="cls-4" x="48.24" y="1.23" width="538.89" height="53.38"/></g><g class="cls-5"><rect class="cls-4" width="54.11" height="54.75"/></g><g class="cls-6"><rect class="cls-4" x="11.97" y="12.08" width="30.34" height="30.59"/></g></svg>