<?xml version="1.0" encoding="UTF-8" standalone="no"?>
<svg width="33px" height="33px" viewBox="0 0 33 33" version="1.1" xmlns="http://www.w3.org/2000/svg" xmlns:xlink="http://www.w3.org/1999/xlink">
    <!-- Generator: Sketch 39.1 (31720) - http://www.bohemiancoding.com/sketch -->
    <title>Group</title>
    <desc>Created with Sketch.</desc>
    <defs></defs>
    <g id="Desktop-Full" stroke="none" stroke-width="1" fill="none" fill-rule="evenodd">
        <g id="V2-/-Landing-Page-Desktop" transform="translate(-410.000000, -1401.000000)" stroke="#BBBBBB" fill="#BBBBBB">
            <g id="Why-It's-Diff" transform="translate(374.000000, 1252.000000)">
                <g id="noun_70958" transform="translate(37.000000, 150.000000)">
                    <g id="Group">
                        <path d="M22.3657619,10.369869 L13.1059881,19.6296429 L9.00328571,15.5269405 C8.71505952,15.2387143 8.24747619,15.2387143 7.95961905,15.5269405 C7.67139286,15.8151667 7.67139286,16.282381 7.95961905,16.5706071 L12.5841548,21.1955119 C12.7225476,21.3339048 12.9103929,21.4114048 13.1059881,21.4114048 C13.3015833,21.4114048 13.4894286,21.3339048 13.6278214,21.1955119 L23.4097976,11.4135357 C23.6980238,11.1253095 23.6980238,10.6580952 23.4097976,10.369869 C23.1215714,10.0816429 22.6539881,10.0812738 22.3657619,10.369869 L22.3657619,10.369869 Z" id="Shape"></path>
                        <path d="M15.5,0 C7.0982619,0 0,7.09789286 0,15.5 C0,23.9021071 7.0982619,31 15.5,31 C23.9017381,31 31,23.9021071 31,15.5 C31,7.09789286 23.9017381,0 15.5,0 L15.5,0 Z M15.5,29.5238095 C7.89835714,29.5238095 1.47619048,23.1016429 1.47619048,15.5 C1.47619048,7.89835714 7.89835714,1.47619048 15.5,1.47619048 C23.1016429,1.47619048 29.5238095,7.89835714 29.5238095,15.5 C29.5238095,23.1016429 23.1016429,29.5238095 15.5,29.5238095 L15.5,29.5238095 Z" id="Shape"></path>
                    </g>
                </g>
            </g>
        </g>
    </g>
</svg>